<?xml version="1.0" encoding="utf-8" standalone="no"?>
<!DOCTYPE svg PUBLIC "-//W3C//DTD SVG 1.1//EN"
  "http://www.w3.org/Graphics/SVG/1.1/DTD/svg11.dtd">
<!-- Created with matplotlib (https://matplotlib.org/) -->
<svg height="270.493594pt" version="1.1" viewBox="0 0 383.168125 270.493594" width="383.168125pt" xmlns="http://www.w3.org/2000/svg" xmlns:xlink="http://www.w3.org/1999/xlink">
 <metadata>
  <rdf:RDF xmlns:cc="http://creativecommons.org/ns#" xmlns:dc="http://purl.org/dc/elements/1.1/" xmlns:rdf="http://www.w3.org/1999/02/22-rdf-syntax-ns#">
   <cc:Work>
    <dc:type rdf:resource="http://purl.org/dc/dcmitype/StillImage"/>
    <dc:date>2020-12-17T18:30:30.374982</dc:date>
    <dc:format>image/svg+xml</dc:format>
    <dc:creator>
     <cc:Agent>
      <dc:title>Matplotlib v3.3.3, https://matplotlib.org/</dc:title>
     </cc:Agent>
    </dc:creator>
   </cc:Work>
  </rdf:RDF>
 </metadata>
 <defs>
  <style type="text/css">*{stroke-linecap:butt;stroke-linejoin:round;}</style>
 </defs>
 <g id="figure_1">
  <g id="patch_1">
   <path d="M 0 270.493594 
L 383.168125 270.493594 
L 383.168125 0 
L 0 0 
z
" style="fill:none;"/>
  </g>
  <g id="axes_1">
   <g id="patch_2">
    <path d="M 41.168125 241.559531 
L 375.968125 241.559531 
L 375.968125 24.119531 
L 41.168125 24.119531 
z
" style="fill:#eaeaf2;"/>
   </g>
   <g id="matplotlib.axis_1">
    <g id="xtick_1">
     <g id="line2d_1">
      <path clip-path="url(#pf1cf76b972)" d="M 54.045048 241.559531 
L 54.045048 24.119531 
" style="fill:none;stroke:#ffffff;stroke-linecap:round;"/>
     </g>
     <g id="text_1">
      <!-- 0 -->
      <g style="fill:#262626;" transform="translate(56.88872 257.176562)rotate(-90)scale(0.11 -0.11)">
       <defs>
        <path d="M 4.15625 35.296875 
Q 4.15625 48 6.765625 55.734375 
Q 9.375 63.484375 14.515625 67.671875 
Q 19.671875 71.875 27.484375 71.875 
Q 33.25 71.875 37.59375 69.546875 
Q 41.9375 67.234375 44.765625 62.859375 
Q 47.609375 58.5 49.21875 52.21875 
Q 50.828125 45.953125 50.828125 35.296875 
Q 50.828125 22.703125 48.234375 14.96875 
Q 45.65625 7.234375 40.5 3 
Q 35.359375 -1.21875 27.484375 -1.21875 
Q 17.140625 -1.21875 11.234375 6.203125 
Q 4.15625 15.140625 4.15625 35.296875 
z
M 13.1875 35.296875 
Q 13.1875 17.671875 17.3125 11.828125 
Q 21.4375 6 27.484375 6 
Q 33.546875 6 37.671875 11.859375 
Q 41.796875 17.71875 41.796875 35.296875 
Q 41.796875 52.984375 37.671875 58.78125 
Q 33.546875 64.59375 27.390625 64.59375 
Q 21.34375 64.59375 17.71875 59.46875 
Q 13.1875 52.9375 13.1875 35.296875 
z
" id="ArialMT-48"/>
       </defs>
       <use xlink:href="#ArialMT-48"/>
      </g>
     </g>
    </g>
    <g id="xtick_2">
     <g id="line2d_2">
      <path clip-path="url(#pf1cf76b972)" d="M 79.798894 241.559531 
L 79.798894 24.119531 
" style="fill:none;stroke:#ffffff;stroke-linecap:round;"/>
     </g>
     <g id="text_2">
      <!-- 1 -->
      <g style="fill:#262626;" transform="translate(82.642566 257.176562)rotate(-90)scale(0.11 -0.11)">
       <defs>
        <path d="M 37.25 0 
L 28.46875 0 
L 28.46875 56 
Q 25.296875 52.984375 20.140625 49.953125 
Q 14.984375 46.921875 10.890625 45.40625 
L 10.890625 53.90625 
Q 18.265625 57.375 23.78125 62.296875 
Q 29.296875 67.234375 31.59375 71.875 
L 37.25 71.875 
z
" id="ArialMT-49"/>
       </defs>
       <use xlink:href="#ArialMT-49"/>
      </g>
     </g>
    </g>
    <g id="xtick_3">
     <g id="line2d_3">
      <path clip-path="url(#pf1cf76b972)" d="M 105.55274 241.559531 
L 105.55274 24.119531 
" style="fill:none;stroke:#ffffff;stroke-linecap:round;"/>
     </g>
     <g id="text_3">
      <!-- 2 -->
      <g style="fill:#262626;" transform="translate(108.396412 257.176562)rotate(-90)scale(0.11 -0.11)">
       <defs>
        <path d="M 50.34375 8.453125 
L 50.34375 0 
L 3.03125 0 
Q 2.9375 3.171875 4.046875 6.109375 
Q 5.859375 10.9375 9.828125 15.625 
Q 13.8125 20.3125 21.34375 26.46875 
Q 33.015625 36.03125 37.109375 41.625 
Q 41.21875 47.21875 41.21875 52.203125 
Q 41.21875 57.421875 37.46875 61 
Q 33.734375 64.59375 27.734375 64.59375 
Q 21.390625 64.59375 17.578125 60.78125 
Q 13.765625 56.984375 13.71875 50.25 
L 4.6875 51.171875 
Q 5.609375 61.28125 11.65625 66.578125 
Q 17.71875 71.875 27.9375 71.875 
Q 38.234375 71.875 44.234375 66.15625 
Q 50.25 60.453125 50.25 52 
Q 50.25 47.703125 48.484375 43.546875 
Q 46.734375 39.40625 42.65625 34.8125 
Q 38.578125 30.21875 29.109375 22.21875 
Q 21.1875 15.578125 18.9375 13.203125 
Q 16.703125 10.84375 15.234375 8.453125 
z
" id="ArialMT-50"/>
       </defs>
       <use xlink:href="#ArialMT-50"/>
      </g>
     </g>
    </g>
    <g id="xtick_4">
     <g id="line2d_4">
      <path clip-path="url(#pf1cf76b972)" d="M 131.306587 241.559531 
L 131.306587 24.119531 
" style="fill:none;stroke:#ffffff;stroke-linecap:round;"/>
     </g>
     <g id="text_4">
      <!-- 3 -->
      <g style="fill:#262626;" transform="translate(134.150258 257.176562)rotate(-90)scale(0.11 -0.11)">
       <defs>
        <path d="M 4.203125 18.890625 
L 12.984375 20.0625 
Q 14.5 12.59375 18.140625 9.296875 
Q 21.78125 6 27 6 
Q 33.203125 6 37.46875 10.296875 
Q 41.75 14.59375 41.75 20.953125 
Q 41.75 27 37.796875 30.921875 
Q 33.84375 34.859375 27.734375 34.859375 
Q 25.25 34.859375 21.53125 33.890625 
L 22.515625 41.609375 
Q 23.390625 41.5 23.921875 41.5 
Q 29.546875 41.5 34.03125 44.421875 
Q 38.53125 47.359375 38.53125 53.46875 
Q 38.53125 58.296875 35.25 61.46875 
Q 31.984375 64.65625 26.8125 64.65625 
Q 21.6875 64.65625 18.265625 61.421875 
Q 14.84375 58.203125 13.875 51.765625 
L 5.078125 53.328125 
Q 6.6875 62.15625 12.390625 67.015625 
Q 18.109375 71.875 26.609375 71.875 
Q 32.46875 71.875 37.390625 69.359375 
Q 42.328125 66.84375 44.9375 62.5 
Q 47.5625 58.15625 47.5625 53.265625 
Q 47.5625 48.640625 45.0625 44.828125 
Q 42.578125 41.015625 37.703125 38.765625 
Q 44.046875 37.3125 47.5625 32.6875 
Q 51.078125 28.078125 51.078125 21.140625 
Q 51.078125 11.765625 44.234375 5.25 
Q 37.40625 -1.265625 26.953125 -1.265625 
Q 17.53125 -1.265625 11.296875 4.34375 
Q 5.078125 9.96875 4.203125 18.890625 
z
" id="ArialMT-51"/>
       </defs>
       <use xlink:href="#ArialMT-51"/>
      </g>
     </g>
    </g>
    <g id="xtick_5">
     <g id="line2d_5">
      <path clip-path="url(#pf1cf76b972)" d="M 157.060433 241.559531 
L 157.060433 24.119531 
" style="fill:none;stroke:#ffffff;stroke-linecap:round;"/>
     </g>
     <g id="text_5">
      <!-- 4 -->
      <g style="fill:#262626;" transform="translate(159.904105 257.176562)rotate(-90)scale(0.11 -0.11)">
       <defs>
        <path d="M 32.328125 0 
L 32.328125 17.140625 
L 1.265625 17.140625 
L 1.265625 25.203125 
L 33.9375 71.578125 
L 41.109375 71.578125 
L 41.109375 25.203125 
L 50.78125 25.203125 
L 50.78125 17.140625 
L 41.109375 17.140625 
L 41.109375 0 
z
M 32.328125 25.203125 
L 32.328125 57.46875 
L 9.90625 25.203125 
z
" id="ArialMT-52"/>
       </defs>
       <use xlink:href="#ArialMT-52"/>
      </g>
     </g>
    </g>
    <g id="xtick_6">
     <g id="line2d_6">
      <path clip-path="url(#pf1cf76b972)" d="M 182.814279 241.559531 
L 182.814279 24.119531 
" style="fill:none;stroke:#ffffff;stroke-linecap:round;"/>
     </g>
     <g id="text_6">
      <!-- 5 -->
      <g style="fill:#262626;" transform="translate(185.657951 257.176562)rotate(-90)scale(0.11 -0.11)">
       <defs>
        <path d="M 4.15625 18.75 
L 13.375 19.53125 
Q 14.40625 12.796875 18.140625 9.390625 
Q 21.875 6 27.15625 6 
Q 33.5 6 37.890625 10.78125 
Q 42.28125 15.578125 42.28125 23.484375 
Q 42.28125 31 38.0625 35.34375 
Q 33.84375 39.703125 27 39.703125 
Q 22.75 39.703125 19.328125 37.765625 
Q 15.921875 35.84375 13.96875 32.765625 
L 5.71875 33.84375 
L 12.640625 70.609375 
L 48.25 70.609375 
L 48.25 62.203125 
L 19.671875 62.203125 
L 15.828125 42.96875 
Q 22.265625 47.46875 29.34375 47.46875 
Q 38.71875 47.46875 45.15625 40.96875 
Q 51.609375 34.46875 51.609375 24.265625 
Q 51.609375 14.546875 45.953125 7.46875 
Q 39.0625 -1.21875 27.15625 -1.21875 
Q 17.390625 -1.21875 11.203125 4.25 
Q 5.03125 9.71875 4.15625 18.75 
z
" id="ArialMT-53"/>
       </defs>
       <use xlink:href="#ArialMT-53"/>
      </g>
     </g>
    </g>
    <g id="xtick_7">
     <g id="line2d_7">
      <path clip-path="url(#pf1cf76b972)" d="M 208.568125 241.559531 
L 208.568125 24.119531 
" style="fill:none;stroke:#ffffff;stroke-linecap:round;"/>
     </g>
     <g id="text_7">
      <!-- 6 -->
      <g style="fill:#262626;" transform="translate(211.411797 257.176562)rotate(-90)scale(0.11 -0.11)">
       <defs>
        <path d="M 49.75 54.046875 
L 41.015625 53.375 
Q 39.84375 58.546875 37.703125 60.890625 
Q 34.125 64.65625 28.90625 64.65625 
Q 24.703125 64.65625 21.53125 62.3125 
Q 17.390625 59.28125 14.984375 53.46875 
Q 12.59375 47.65625 12.5 36.921875 
Q 15.671875 41.75 20.265625 44.09375 
Q 24.859375 46.4375 29.890625 46.4375 
Q 38.671875 46.4375 44.84375 39.96875 
Q 51.03125 33.5 51.03125 23.25 
Q 51.03125 16.5 48.125 10.71875 
Q 45.21875 4.9375 40.140625 1.859375 
Q 35.0625 -1.21875 28.609375 -1.21875 
Q 17.625 -1.21875 10.6875 6.859375 
Q 3.765625 14.9375 3.765625 33.5 
Q 3.765625 54.25 11.421875 63.671875 
Q 18.109375 71.875 29.4375 71.875 
Q 37.890625 71.875 43.28125 67.140625 
Q 48.6875 62.40625 49.75 54.046875 
z
M 13.875 23.1875 
Q 13.875 18.65625 15.796875 14.5 
Q 17.71875 10.359375 21.1875 8.171875 
Q 24.65625 6 28.46875 6 
Q 34.03125 6 38.03125 10.484375 
Q 42.046875 14.984375 42.046875 22.703125 
Q 42.046875 30.125 38.078125 34.390625 
Q 34.125 38.671875 28.125 38.671875 
Q 22.171875 38.671875 18.015625 34.390625 
Q 13.875 30.125 13.875 23.1875 
z
" id="ArialMT-54"/>
       </defs>
       <use xlink:href="#ArialMT-54"/>
      </g>
     </g>
    </g>
    <g id="xtick_8">
     <g id="line2d_8">
      <path clip-path="url(#pf1cf76b972)" d="M 234.321971 241.559531 
L 234.321971 24.119531 
" style="fill:none;stroke:#ffffff;stroke-linecap:round;"/>
     </g>
     <g id="text_8">
      <!-- 7 -->
      <g style="fill:#262626;" transform="translate(237.165643 257.176562)rotate(-90)scale(0.11 -0.11)">
       <defs>
        <path d="M 4.734375 62.203125 
L 4.734375 70.65625 
L 51.078125 70.65625 
L 51.078125 63.8125 
Q 44.234375 56.546875 37.515625 44.484375 
Q 30.8125 32.421875 27.15625 19.671875 
Q 24.515625 10.6875 23.78125 0 
L 14.75 0 
Q 14.890625 8.453125 18.0625 20.40625 
Q 21.234375 32.375 27.171875 43.484375 
Q 33.109375 54.59375 39.796875 62.203125 
z
" id="ArialMT-55"/>
       </defs>
       <use xlink:href="#ArialMT-55"/>
      </g>
     </g>
    </g>
    <g id="xtick_9">
     <g id="line2d_9">
      <path clip-path="url(#pf1cf76b972)" d="M 260.075817 241.559531 
L 260.075817 24.119531 
" style="fill:none;stroke:#ffffff;stroke-linecap:round;"/>
     </g>
     <g id="text_9">
      <!-- 8 -->
      <g style="fill:#262626;" transform="translate(262.919489 257.176562)rotate(-90)scale(0.11 -0.11)">
       <defs>
        <path d="M 17.671875 38.8125 
Q 12.203125 40.828125 9.5625 44.53125 
Q 6.9375 48.25 6.9375 53.421875 
Q 6.9375 61.234375 12.546875 66.546875 
Q 18.171875 71.875 27.484375 71.875 
Q 36.859375 71.875 42.578125 66.421875 
Q 48.296875 60.984375 48.296875 53.171875 
Q 48.296875 48.1875 45.671875 44.5 
Q 43.0625 40.828125 37.75 38.8125 
Q 44.34375 36.671875 47.78125 31.875 
Q 51.21875 27.09375 51.21875 20.453125 
Q 51.21875 11.28125 44.71875 5.03125 
Q 38.234375 -1.21875 27.640625 -1.21875 
Q 17.046875 -1.21875 10.546875 5.046875 
Q 4.046875 11.328125 4.046875 20.703125 
Q 4.046875 27.6875 7.59375 32.390625 
Q 11.140625 37.109375 17.671875 38.8125 
z
M 15.921875 53.71875 
Q 15.921875 48.640625 19.1875 45.40625 
Q 22.46875 42.1875 27.6875 42.1875 
Q 32.765625 42.1875 36.015625 45.375 
Q 39.265625 48.578125 39.265625 53.21875 
Q 39.265625 58.0625 35.90625 61.359375 
Q 32.5625 64.65625 27.59375 64.65625 
Q 22.5625 64.65625 19.234375 61.421875 
Q 15.921875 58.203125 15.921875 53.71875 
z
M 13.09375 20.65625 
Q 13.09375 16.890625 14.875 13.375 
Q 16.65625 9.859375 20.171875 7.921875 
Q 23.6875 6 27.734375 6 
Q 34.03125 6 38.125 10.046875 
Q 42.234375 14.109375 42.234375 20.359375 
Q 42.234375 26.703125 38.015625 30.859375 
Q 33.796875 35.015625 27.4375 35.015625 
Q 21.234375 35.015625 17.15625 30.90625 
Q 13.09375 26.8125 13.09375 20.65625 
z
" id="ArialMT-56"/>
       </defs>
       <use xlink:href="#ArialMT-56"/>
      </g>
     </g>
    </g>
    <g id="xtick_10">
     <g id="line2d_10">
      <path clip-path="url(#pf1cf76b972)" d="M 285.829663 241.559531 
L 285.829663 24.119531 
" style="fill:none;stroke:#ffffff;stroke-linecap:round;"/>
     </g>
     <g id="text_10">
      <!-- 9 -->
      <g style="fill:#262626;" transform="translate(288.673335 257.176562)rotate(-90)scale(0.11 -0.11)">
       <defs>
        <path d="M 5.46875 16.546875 
L 13.921875 17.328125 
Q 14.984375 11.375 18.015625 8.6875 
Q 21.046875 6 25.78125 6 
Q 29.828125 6 32.875 7.859375 
Q 35.9375 9.71875 37.890625 12.8125 
Q 39.84375 15.921875 41.15625 21.1875 
Q 42.484375 26.46875 42.484375 31.9375 
Q 42.484375 32.515625 42.4375 33.6875 
Q 39.796875 29.5 35.234375 26.875 
Q 30.671875 24.265625 25.34375 24.265625 
Q 16.453125 24.265625 10.296875 30.703125 
Q 4.15625 37.15625 4.15625 47.703125 
Q 4.15625 58.59375 10.578125 65.234375 
Q 17 71.875 26.65625 71.875 
Q 33.640625 71.875 39.421875 68.109375 
Q 45.21875 64.359375 48.21875 57.390625 
Q 51.21875 50.4375 51.21875 37.25 
Q 51.21875 23.53125 48.234375 15.40625 
Q 45.265625 7.28125 39.375 3.03125 
Q 33.5 -1.21875 25.59375 -1.21875 
Q 17.1875 -1.21875 11.859375 3.4375 
Q 6.546875 8.109375 5.46875 16.546875 
z
M 41.453125 48.140625 
Q 41.453125 55.71875 37.421875 60.15625 
Q 33.40625 64.59375 27.734375 64.59375 
Q 21.875 64.59375 17.53125 59.8125 
Q 13.1875 55.03125 13.1875 47.40625 
Q 13.1875 40.578125 17.3125 36.296875 
Q 21.4375 32.03125 27.484375 32.03125 
Q 33.59375 32.03125 37.515625 36.296875 
Q 41.453125 40.578125 41.453125 48.140625 
z
" id="ArialMT-57"/>
       </defs>
       <use xlink:href="#ArialMT-57"/>
      </g>
     </g>
    </g>
    <g id="xtick_11">
     <g id="line2d_11">
      <path clip-path="url(#pf1cf76b972)" d="M 311.58351 241.559531 
L 311.58351 24.119531 
" style="fill:none;stroke:#ffffff;stroke-linecap:round;"/>
     </g>
     <g id="text_11">
      <!-- 10 -->
      <g style="fill:#262626;" transform="translate(314.427181 263.293594)rotate(-90)scale(0.11 -0.11)">
       <use xlink:href="#ArialMT-49"/>
       <use x="55.615234" xlink:href="#ArialMT-48"/>
      </g>
     </g>
    </g>
    <g id="xtick_12">
     <g id="line2d_12">
      <path clip-path="url(#pf1cf76b972)" d="M 337.337356 241.559531 
L 337.337356 24.119531 
" style="fill:none;stroke:#ffffff;stroke-linecap:round;"/>
     </g>
     <g id="text_12">
      <!-- 11 -->
      <g style="fill:#262626;" transform="translate(340.181028 262.482344)rotate(-90)scale(0.11 -0.11)">
       <use xlink:href="#ArialMT-49"/>
       <use x="48.240234" xlink:href="#ArialMT-49"/>
      </g>
     </g>
    </g>
    <g id="xtick_13">
     <g id="line2d_13">
      <path clip-path="url(#pf1cf76b972)" d="M 363.091202 241.559531 
L 363.091202 24.119531 
" style="fill:none;stroke:#ffffff;stroke-linecap:round;"/>
     </g>
     <g id="text_13">
      <!-- 12 -->
      <g style="fill:#262626;" transform="translate(365.934874 263.293594)rotate(-90)scale(0.11 -0.11)">
       <use xlink:href="#ArialMT-49"/>
       <use x="55.615234" xlink:href="#ArialMT-50"/>
      </g>
     </g>
    </g>
   </g>
   <g id="matplotlib.axis_2">
    <g id="ytick_1">
     <g id="line2d_14">
      <path clip-path="url(#pf1cf76b972)" d="M 41.168125 241.559531 
L 375.968125 241.559531 
" style="fill:none;stroke:#ffffff;stroke-linecap:round;"/>
     </g>
     <g id="text_14">
      <!-- 0 -->
      <g style="fill:#262626;" transform="translate(25.551094 245.496328)scale(0.11 -0.11)">
       <use xlink:href="#ArialMT-48"/>
      </g>
     </g>
    </g>
    <g id="ytick_2">
     <g id="line2d_15">
      <path clip-path="url(#pf1cf76b972)" d="M 41.168125 201.049806 
L 375.968125 201.049806 
" style="fill:none;stroke:#ffffff;stroke-linecap:round;"/>
     </g>
     <g id="text_15">
      <!-- 1000 -->
      <g style="fill:#262626;" transform="translate(7.2 204.986603)scale(0.11 -0.11)">
       <use xlink:href="#ArialMT-49"/>
       <use x="55.615234" xlink:href="#ArialMT-48"/>
       <use x="111.230469" xlink:href="#ArialMT-48"/>
       <use x="166.845703" xlink:href="#ArialMT-48"/>
      </g>
     </g>
    </g>
    <g id="ytick_3">
     <g id="line2d_16">
      <path clip-path="url(#pf1cf76b972)" d="M 41.168125 160.540081 
L 375.968125 160.540081 
" style="fill:none;stroke:#ffffff;stroke-linecap:round;"/>
     </g>
     <g id="text_16">
      <!-- 2000 -->
      <g style="fill:#262626;" transform="translate(7.2 164.476878)scale(0.11 -0.11)">
       <use xlink:href="#ArialMT-50"/>
       <use x="55.615234" xlink:href="#ArialMT-48"/>
       <use x="111.230469" xlink:href="#ArialMT-48"/>
       <use x="166.845703" xlink:href="#ArialMT-48"/>
      </g>
     </g>
    </g>
    <g id="ytick_4">
     <g id="line2d_17">
      <path clip-path="url(#pf1cf76b972)" d="M 41.168125 120.030356 
L 375.968125 120.030356 
" style="fill:none;stroke:#ffffff;stroke-linecap:round;"/>
     </g>
     <g id="text_17">
      <!-- 3000 -->
      <g style="fill:#262626;" transform="translate(7.2 123.967153)scale(0.11 -0.11)">
       <use xlink:href="#ArialMT-51"/>
       <use x="55.615234" xlink:href="#ArialMT-48"/>
       <use x="111.230469" xlink:href="#ArialMT-48"/>
       <use x="166.845703" xlink:href="#ArialMT-48"/>
      </g>
     </g>
    </g>
    <g id="ytick_5">
     <g id="line2d_18">
      <path clip-path="url(#pf1cf76b972)" d="M 41.168125 79.520631 
L 375.968125 79.520631 
" style="fill:none;stroke:#ffffff;stroke-linecap:round;"/>
     </g>
     <g id="text_18">
      <!-- 4000 -->
      <g style="fill:#262626;" transform="translate(7.2 83.457428)scale(0.11 -0.11)">
       <use xlink:href="#ArialMT-52"/>
       <use x="55.615234" xlink:href="#ArialMT-48"/>
       <use x="111.230469" xlink:href="#ArialMT-48"/>
       <use x="166.845703" xlink:href="#ArialMT-48"/>
      </g>
     </g>
    </g>
    <g id="ytick_6">
     <g id="line2d_19">
      <path clip-path="url(#pf1cf76b972)" d="M 41.168125 39.010906 
L 375.968125 39.010906 
" style="fill:none;stroke:#ffffff;stroke-linecap:round;"/>
     </g>
     <g id="text_19">
      <!-- 5000 -->
      <g style="fill:#262626;" transform="translate(7.2 42.947703)scale(0.11 -0.11)">
       <use xlink:href="#ArialMT-53"/>
       <use x="55.615234" xlink:href="#ArialMT-48"/>
       <use x="111.230469" xlink:href="#ArialMT-48"/>
       <use x="166.845703" xlink:href="#ArialMT-48"/>
      </g>
     </g>
    </g>
   </g>
   <g id="patch_3">
    <path clip-path="url(#pf1cf76b972)" d="M 47.606587 241.559531 
L 60.48351 241.559531 
L 60.48351 147.009833 
L 47.606587 147.009833 
z
" style="fill:#4c72b0;stroke:#ffffff;stroke-linejoin:miter;"/>
   </g>
   <g id="patch_4">
    <path clip-path="url(#pf1cf76b972)" d="M 73.360433 241.559531 
L 86.237356 241.559531 
L 86.237356 69.31218 
L 73.360433 69.31218 
z
" style="fill:#4c72b0;stroke:#ffffff;stroke-linejoin:miter;"/>
   </g>
   <g id="patch_5">
    <path clip-path="url(#pf1cf76b972)" d="M 99.114279 241.559531 
L 111.991202 241.559531 
L 111.991202 34.473817 
L 99.114279 34.473817 
z
" style="fill:#4c72b0;stroke:#ffffff;stroke-linejoin:miter;"/>
   </g>
   <g id="patch_6">
    <path clip-path="url(#pf1cf76b972)" d="M 124.868125 241.559531 
L 137.745048 241.559531 
L 137.745048 75.34813 
L 124.868125 75.34813 
z
" style="fill:#4c72b0;stroke:#ffffff;stroke-linejoin:miter;"/>
   </g>
   <g id="patch_7">
    <path clip-path="url(#pf1cf76b972)" d="M 150.621971 241.559531 
L 163.498894 241.559531 
L 163.498894 153.855977 
L 150.621971 153.855977 
z
" style="fill:#4c72b0;stroke:#ffffff;stroke-linejoin:miter;"/>
   </g>
   <g id="patch_8">
    <path clip-path="url(#pf1cf76b972)" d="M 176.375817 241.559531 
L 189.25274 241.559531 
L 189.25274 194.365702 
L 176.375817 194.365702 
z
" style="fill:#4c72b0;stroke:#ffffff;stroke-linejoin:miter;"/>
   </g>
   <g id="patch_9">
    <path clip-path="url(#pf1cf76b972)" d="M 202.129663 241.559531 
L 215.006587 241.559531 
L 215.006587 218.995614 
L 202.129663 218.995614 
z
" style="fill:#4c72b0;stroke:#ffffff;stroke-linejoin:miter;"/>
   </g>
   <g id="patch_10">
    <path clip-path="url(#pf1cf76b972)" d="M 227.88351 241.559531 
L 240.760433 241.559531 
L 240.760433 232.647392 
L 227.88351 232.647392 
z
" style="fill:#4c72b0;stroke:#ffffff;stroke-linejoin:miter;"/>
   </g>
   <g id="patch_11">
    <path clip-path="url(#pf1cf76b972)" d="M 253.637356 241.559531 
L 266.514279 241.559531 
L 266.514279 238.075695 
L 253.637356 238.075695 
z
" style="fill:#4c72b0;stroke:#ffffff;stroke-linejoin:miter;"/>
   </g>
   <g id="patch_12">
    <path clip-path="url(#pf1cf76b972)" d="M 279.391202 241.559531 
L 292.268125 241.559531 
L 292.268125 240.506278 
L 279.391202 240.506278 
z
" style="fill:#4c72b0;stroke:#ffffff;stroke-linejoin:miter;"/>
   </g>
   <g id="patch_13">
    <path clip-path="url(#pf1cf76b972)" d="M 305.145048 241.559531 
L 318.021971 241.559531 
L 318.021971 241.194944 
L 305.145048 241.194944 
z
" style="fill:#4c72b0;stroke:#ffffff;stroke-linejoin:miter;"/>
   </g>
   <g id="patch_14">
    <path clip-path="url(#pf1cf76b972)" d="M 330.898894 241.559531 
L 343.775817 241.559531 
L 343.775817 241.397492 
L 330.898894 241.397492 
z
" style="fill:#4c72b0;stroke:#ffffff;stroke-linejoin:miter;"/>
   </g>
   <g id="patch_15">
    <path clip-path="url(#pf1cf76b972)" d="M 356.65274 241.559531 
L 369.529663 241.559531 
L 369.529663 241.438002 
L 356.65274 241.438002 
z
" style="fill:#4c72b0;stroke:#ffffff;stroke-linejoin:miter;"/>
   </g>
   <g id="patch_16">
    <path d="M 41.168125 241.559531 
L 41.168125 24.119531 
" style="fill:none;stroke:#ffffff;stroke-linecap:square;stroke-linejoin:miter;stroke-width:1.25;"/>
   </g>
   <g id="patch_17">
    <path d="M 375.968125 241.559531 
L 375.968125 24.119531 
" style="fill:none;stroke:#ffffff;stroke-linecap:square;stroke-linejoin:miter;stroke-width:1.25;"/>
   </g>
   <g id="patch_18">
    <path d="M 41.168125 241.559531 
L 375.968125 241.559531 
" style="fill:none;stroke:#ffffff;stroke-linecap:square;stroke-linejoin:miter;stroke-width:1.25;"/>
   </g>
   <g id="patch_19">
    <path d="M 41.168125 24.119531 
L 375.968125 24.119531 
" style="fill:none;stroke:#ffffff;stroke-linecap:square;stroke-linejoin:miter;stroke-width:1.25;"/>
   </g>
   <g id="text_20">
    <!-- No. of Programming Languages -->
    <g style="fill:#262626;" transform="translate(94.814219 18.119531)scale(0.15 -0.15)">
     <defs>
      <path d="M 7.421875 0 
L 7.421875 71.578125 
L 21.484375 71.578125 
L 50.78125 23.78125 
L 50.78125 71.578125 
L 64.203125 71.578125 
L 64.203125 0 
L 49.703125 0 
L 20.84375 46.6875 
L 20.84375 0 
z
" id="Arial-BoldMT-78"/>
      <path d="M 4 26.65625 
Q 4 33.5 7.375 39.890625 
Q 10.75 46.296875 16.921875 49.65625 
Q 23.09375 53.03125 30.71875 53.03125 
Q 42.484375 53.03125 50 45.390625 
Q 57.515625 37.75 57.515625 26.078125 
Q 57.515625 14.3125 49.921875 6.5625 
Q 42.328125 -1.171875 30.8125 -1.171875 
Q 23.6875 -1.171875 17.21875 2.046875 
Q 10.75 5.28125 7.375 11.5 
Q 4 17.71875 4 26.65625 
z
M 18.0625 25.921875 
Q 18.0625 18.21875 21.71875 14.109375 
Q 25.390625 10.015625 30.765625 10.015625 
Q 36.140625 10.015625 39.765625 14.109375 
Q 43.40625 18.21875 43.40625 26.03125 
Q 43.40625 33.640625 39.765625 37.734375 
Q 36.140625 41.84375 30.765625 41.84375 
Q 25.390625 41.84375 21.71875 37.734375 
Q 18.0625 33.640625 18.0625 25.921875 
z
" id="Arial-BoldMT-111"/>
      <path d="M 7.171875 0 
L 7.171875 13.71875 
L 20.90625 13.71875 
L 20.90625 0 
z
" id="Arial-BoldMT-46"/>
      <path id="Arial-BoldMT-32"/>
      <path d="M 1.171875 51.859375 
L 8.796875 51.859375 
L 8.796875 55.765625 
Q 8.796875 62.3125 10.1875 65.53125 
Q 11.578125 68.75 15.3125 70.765625 
Q 19.046875 72.796875 24.75 72.796875 
Q 30.609375 72.796875 36.234375 71.046875 
L 34.375 61.46875 
Q 31.109375 62.25 28.078125 62.25 
Q 25.09375 62.25 23.796875 60.859375 
Q 22.515625 59.46875 22.515625 55.515625 
L 22.515625 51.859375 
L 32.765625 51.859375 
L 32.765625 41.0625 
L 22.515625 41.0625 
L 22.515625 0 
L 8.796875 0 
L 8.796875 41.0625 
L 1.171875 41.0625 
z
" id="Arial-BoldMT-102"/>
      <path d="M 7.28125 0 
L 7.28125 71.578125 
L 30.46875 71.578125 
Q 43.65625 71.578125 47.65625 70.515625 
Q 53.8125 68.890625 57.953125 63.5 
Q 62.109375 58.109375 62.109375 49.5625 
Q 62.109375 42.96875 59.71875 38.46875 
Q 57.328125 33.984375 53.640625 31.421875 
Q 49.953125 28.859375 46.140625 28.03125 
Q 40.96875 27 31.15625 27 
L 21.734375 27 
L 21.734375 0 
z
M 21.734375 59.46875 
L 21.734375 39.15625 
L 29.640625 39.15625 
Q 38.1875 39.15625 41.0625 40.28125 
Q 43.953125 41.40625 45.578125 43.796875 
Q 47.21875 46.1875 47.21875 49.359375 
Q 47.21875 53.265625 44.921875 55.796875 
Q 42.625 58.34375 39.109375 58.984375 
Q 36.53125 59.46875 28.71875 59.46875 
z
" id="Arial-BoldMT-80"/>
      <path d="M 20.3125 0 
L 6.59375 0 
L 6.59375 51.859375 
L 19.34375 51.859375 
L 19.34375 44.484375 
Q 22.609375 49.703125 25.21875 51.359375 
Q 27.828125 53.03125 31.15625 53.03125 
Q 35.84375 53.03125 40.1875 50.4375 
L 35.9375 38.484375 
Q 32.46875 40.71875 29.5 40.71875 
Q 26.609375 40.71875 24.609375 39.125 
Q 22.609375 37.546875 21.453125 33.390625 
Q 20.3125 29.25 20.3125 16.015625 
z
" id="Arial-BoldMT-114"/>
      <path d="M 5.90625 -3.421875 
L 21.578125 -5.328125 
Q 21.96875 -8.0625 23.390625 -9.078125 
Q 25.34375 -10.546875 29.546875 -10.546875 
Q 34.90625 -10.546875 37.59375 -8.9375 
Q 39.40625 -7.859375 40.328125 -5.46875 
Q 40.96875 -3.765625 40.96875 0.828125 
L 40.96875 8.40625 
Q 34.8125 0 25.4375 0 
Q 14.984375 0 8.890625 8.84375 
Q 4.109375 15.828125 4.109375 26.21875 
Q 4.109375 39.265625 10.375 46.140625 
Q 16.65625 53.03125 25.984375 53.03125 
Q 35.59375 53.03125 41.84375 44.578125 
L 41.84375 51.859375 
L 54.6875 51.859375 
L 54.6875 5.328125 
Q 54.6875 -3.859375 53.171875 -8.390625 
Q 51.65625 -12.9375 48.921875 -15.515625 
Q 46.1875 -18.109375 41.625 -19.578125 
Q 37.0625 -21.046875 30.078125 -21.046875 
Q 16.890625 -21.046875 11.375 -16.53125 
Q 5.859375 -12.015625 5.859375 -5.078125 
Q 5.859375 -4.390625 5.90625 -3.421875 
z
M 18.171875 27 
Q 18.171875 18.75 21.359375 14.90625 
Q 24.5625 11.078125 29.25 11.078125 
Q 34.28125 11.078125 37.75 15.015625 
Q 41.21875 18.953125 41.21875 26.65625 
Q 41.21875 34.71875 37.890625 38.625 
Q 34.578125 42.53125 29.5 42.53125 
Q 24.5625 42.53125 21.359375 38.6875 
Q 18.171875 34.859375 18.171875 27 
z
" id="Arial-BoldMT-103"/>
      <path d="M 17.4375 36.03125 
L 4.984375 38.28125 
Q 7.078125 45.796875 12.203125 49.40625 
Q 17.328125 53.03125 27.4375 53.03125 
Q 36.625 53.03125 41.109375 50.859375 
Q 45.609375 48.6875 47.4375 45.34375 
Q 49.265625 42 49.265625 33.0625 
L 49.125 17.046875 
Q 49.125 10.203125 49.78125 6.953125 
Q 50.4375 3.71875 52.25 0 
L 38.671875 0 
Q 38.140625 1.375 37.359375 4.046875 
Q 37.015625 5.28125 36.859375 5.671875 
Q 33.34375 2.25 29.34375 0.53125 
Q 25.34375 -1.171875 20.796875 -1.171875 
Q 12.796875 -1.171875 8.171875 3.171875 
Q 3.5625 7.515625 3.5625 14.15625 
Q 3.5625 18.5625 5.65625 22 
Q 7.765625 25.4375 11.546875 27.265625 
Q 15.328125 29.109375 22.46875 30.46875 
Q 32.078125 32.28125 35.796875 33.84375 
L 35.796875 35.203125 
Q 35.796875 39.15625 33.84375 40.84375 
Q 31.890625 42.53125 26.46875 42.53125 
Q 22.796875 42.53125 20.75 41.09375 
Q 18.703125 39.65625 17.4375 36.03125 
z
M 35.796875 24.90625 
Q 33.15625 24.03125 27.4375 22.796875 
Q 21.734375 21.578125 19.96875 20.40625 
Q 17.28125 18.5 17.28125 15.578125 
Q 17.28125 12.703125 19.421875 10.59375 
Q 21.578125 8.5 24.90625 8.5 
Q 28.609375 8.5 31.984375 10.9375 
Q 34.46875 12.796875 35.25 15.484375 
Q 35.796875 17.234375 35.796875 22.171875 
z
" id="Arial-BoldMT-97"/>
      <path d="M 6.15625 51.859375 
L 18.796875 51.859375 
L 18.796875 44.78125 
Q 25.59375 53.03125 34.96875 53.03125 
Q 39.9375 53.03125 43.59375 50.96875 
Q 47.265625 48.921875 49.609375 44.78125 
Q 53.03125 48.921875 56.984375 50.96875 
Q 60.9375 53.03125 65.4375 53.03125 
Q 71.140625 53.03125 75.09375 50.703125 
Q 79.046875 48.390625 81 43.890625 
Q 82.421875 40.578125 82.421875 33.15625 
L 82.421875 0 
L 68.703125 0 
L 68.703125 29.640625 
Q 68.703125 37.359375 67.28125 39.59375 
Q 65.375 42.53125 61.421875 42.53125 
Q 58.546875 42.53125 56 40.765625 
Q 53.46875 39.015625 52.34375 35.625 
Q 51.21875 32.234375 51.21875 24.90625 
L 51.21875 0 
L 37.5 0 
L 37.5 28.421875 
Q 37.5 35.984375 36.765625 38.171875 
Q 36.03125 40.375 34.484375 41.453125 
Q 32.953125 42.53125 30.328125 42.53125 
Q 27.15625 42.53125 24.609375 40.8125 
Q 22.078125 39.109375 20.96875 35.890625 
Q 19.875 32.671875 19.875 25.203125 
L 19.875 0 
L 6.15625 0 
z
" id="Arial-BoldMT-109"/>
      <path d="M 7.171875 58.890625 
L 7.171875 71.578125 
L 20.90625 71.578125 
L 20.90625 58.890625 
z
M 7.171875 0 
L 7.171875 51.859375 
L 20.90625 51.859375 
L 20.90625 0 
z
" id="Arial-BoldMT-105"/>
      <path d="M 54.34375 0 
L 40.625 0 
L 40.625 26.46875 
Q 40.625 34.859375 39.75 37.328125 
Q 38.875 39.796875 36.890625 41.15625 
Q 34.90625 42.53125 32.125 42.53125 
Q 28.5625 42.53125 25.734375 40.578125 
Q 22.90625 38.625 21.84375 35.390625 
Q 20.796875 32.171875 20.796875 23.484375 
L 20.796875 0 
L 7.078125 0 
L 7.078125 51.859375 
L 19.828125 51.859375 
L 19.828125 44.234375 
Q 26.609375 53.03125 36.921875 53.03125 
Q 41.453125 53.03125 45.203125 51.390625 
Q 48.96875 49.75 50.890625 47.203125 
Q 52.828125 44.671875 53.578125 41.453125 
Q 54.34375 38.234375 54.34375 32.234375 
z
" id="Arial-BoldMT-110"/>
      <path d="M 7.671875 0 
L 7.671875 71 
L 22.125 71 
L 22.125 12.0625 
L 58.0625 12.0625 
L 58.0625 0 
z
" id="Arial-BoldMT-76"/>
      <path d="M 41.3125 0 
L 41.3125 7.765625 
Q 38.484375 3.609375 33.859375 1.21875 
Q 29.25 -1.171875 24.125 -1.171875 
Q 18.890625 -1.171875 14.734375 1.125 
Q 10.59375 3.421875 8.734375 7.5625 
Q 6.890625 11.71875 6.890625 19.046875 
L 6.890625 51.859375 
L 20.609375 51.859375 
L 20.609375 28.03125 
Q 20.609375 17.09375 21.359375 14.625 
Q 22.125 12.15625 24.125 10.71875 
Q 26.125 9.28125 29.203125 9.28125 
Q 32.71875 9.28125 35.5 11.203125 
Q 38.28125 13.140625 39.296875 15.984375 
Q 40.328125 18.84375 40.328125 29.984375 
L 40.328125 51.859375 
L 54.046875 51.859375 
L 54.046875 0 
z
" id="Arial-BoldMT-117"/>
      <path d="M 37.203125 16.5 
L 50.875 14.203125 
Q 48.25 6.6875 42.546875 2.75 
Q 36.859375 -1.171875 28.328125 -1.171875 
Q 14.796875 -1.171875 8.296875 7.671875 
Q 3.171875 14.75 3.171875 25.53125 
Q 3.171875 38.421875 9.90625 45.71875 
Q 16.65625 53.03125 26.953125 53.03125 
Q 38.53125 53.03125 45.21875 45.390625 
Q 51.90625 37.75 51.609375 21.96875 
L 17.234375 21.96875 
Q 17.390625 15.875 20.5625 12.46875 
Q 23.734375 9.078125 28.46875 9.078125 
Q 31.6875 9.078125 33.875 10.828125 
Q 36.078125 12.59375 37.203125 16.5 
z
M 37.984375 30.375 
Q 37.84375 36.328125 34.90625 39.421875 
Q 31.984375 42.53125 27.78125 42.53125 
Q 23.296875 42.53125 20.359375 39.265625 
Q 17.4375 35.984375 17.484375 30.375 
z
" id="Arial-BoldMT-101"/>
      <path d="M 2.34375 14.796875 
L 16.109375 16.890625 
Q 17 12.890625 19.671875 10.8125 
Q 22.359375 8.734375 27.203125 8.734375 
Q 32.515625 8.734375 35.203125 10.6875 
Q 37.015625 12.0625 37.015625 14.359375 
Q 37.015625 15.921875 36.03125 16.9375 
Q 35.015625 17.921875 31.453125 18.75 
Q 14.84375 22.40625 10.40625 25.4375 
Q 4.25 29.640625 4.25 37.109375 
Q 4.25 43.84375 9.5625 48.4375 
Q 14.890625 53.03125 26.078125 53.03125 
Q 36.71875 53.03125 41.890625 49.5625 
Q 47.078125 46.09375 49.03125 39.3125 
L 36.078125 36.921875 
Q 35.25 39.9375 32.921875 41.546875 
Q 30.609375 43.171875 26.3125 43.171875 
Q 20.90625 43.171875 18.5625 41.65625 
Q 17 40.578125 17 38.875 
Q 17 37.40625 18.359375 36.375 
Q 20.21875 35.015625 31.171875 32.515625 
Q 42.140625 30.03125 46.484375 26.421875 
Q 50.78125 22.75 50.78125 16.21875 
Q 50.78125 9.078125 44.828125 3.953125 
Q 38.875 -1.171875 27.203125 -1.171875 
Q 16.609375 -1.171875 10.421875 3.125 
Q 4.25 7.421875 2.34375 14.796875 
z
" id="Arial-BoldMT-115"/>
     </defs>
     <use xlink:href="#Arial-BoldMT-78"/>
     <use x="72.216797" xlink:href="#Arial-BoldMT-111"/>
     <use x="133.300781" xlink:href="#Arial-BoldMT-46"/>
     <use x="161.083984" xlink:href="#Arial-BoldMT-32"/>
     <use x="188.867188" xlink:href="#Arial-BoldMT-111"/>
     <use x="249.951172" xlink:href="#Arial-BoldMT-102"/>
     <use x="283.251953" xlink:href="#Arial-BoldMT-32"/>
     <use x="311.035156" xlink:href="#Arial-BoldMT-80"/>
     <use x="377.734375" xlink:href="#Arial-BoldMT-114"/>
     <use x="416.650391" xlink:href="#Arial-BoldMT-111"/>
     <use x="477.734375" xlink:href="#Arial-BoldMT-103"/>
     <use x="538.818359" xlink:href="#Arial-BoldMT-114"/>
     <use x="577.734375" xlink:href="#Arial-BoldMT-97"/>
     <use x="633.349609" xlink:href="#Arial-BoldMT-109"/>
     <use x="722.265625" xlink:href="#Arial-BoldMT-109"/>
     <use x="811.181641" xlink:href="#Arial-BoldMT-105"/>
     <use x="838.964844" xlink:href="#Arial-BoldMT-110"/>
     <use x="900.048828" xlink:href="#Arial-BoldMT-103"/>
     <use x="961.132812" xlink:href="#Arial-BoldMT-32"/>
     <use x="988.916016" xlink:href="#Arial-BoldMT-76"/>
     <use x="1050" xlink:href="#Arial-BoldMT-97"/>
     <use x="1105.615234" xlink:href="#Arial-BoldMT-110"/>
     <use x="1166.699219" xlink:href="#Arial-BoldMT-103"/>
     <use x="1227.783203" xlink:href="#Arial-BoldMT-117"/>
     <use x="1288.867188" xlink:href="#Arial-BoldMT-97"/>
     <use x="1344.482422" xlink:href="#Arial-BoldMT-103"/>
     <use x="1405.566406" xlink:href="#Arial-BoldMT-101"/>
     <use x="1461.181641" xlink:href="#Arial-BoldMT-115"/>
    </g>
   </g>
  </g>
 </g>
 <defs>
  <clipPath id="pf1cf76b972">
   <rect height="217.44" width="334.8" x="41.168125" y="24.119531"/>
  </clipPath>
 </defs>
</svg>
